<svg width="81" height="80" viewBox="0 0 81 80" fill="none" xmlns="http://www.w3.org/2000/svg">
<rect width="81" height="80" rx="40" fill="#D4E9E2"/>
<path d="M27.1667 50.0002C27.1667 48.2321 27.8691 46.5364 29.1193 45.2861C30.3696 44.0359 32.0652 43.3335 33.8334 43.3335H47.1667C48.9348 43.3335 50.6305 44.0359 51.8807 45.2861C53.131 46.5364 53.8334 48.2321 53.8334 50.0002C53.8334 50.8842 53.4822 51.7321 52.857 52.3572C52.2319 52.9823 51.3841 53.3335 50.5 53.3335H30.5C29.616 53.3335 28.7681 52.9823 28.143 52.3572C27.5179 51.7321 27.1667 50.8842 27.1667 50.0002Z" stroke="#1B4332" stroke-width="1.5" stroke-linejoin="round"/>
<path d="M40.5 36.6667C43.2614 36.6667 45.5 34.4282 45.5 31.6667C45.5 28.9053 43.2614 26.6667 40.5 26.6667C37.7386 26.6667 35.5 28.9053 35.5 31.6667C35.5 34.4282 37.7386 36.6667 40.5 36.6667Z" stroke="#1B4332" stroke-width="1.5"/>
</svg>
