<svg width="24" height="20" viewBox="0 0 24 20" fill="none" xmlns="http://www.w3.org/2000/svg">
<path d="M0.923077 0.923077V0C0.678262 0 0.443473 0.0972524 0.270363 0.270363C0.0972524 0.443473 0 0.678262 0 0.923077H0.923077ZM23.0769 0.923077H24C24 0.678262 23.9028 0.443473 23.7296 0.270363C23.5565 0.0972524 23.3217 0 23.0769 0V0.923077ZM0.923077 1.84615H23.0769V0H0.923077V1.84615ZM22.1538 0.923077V15.6923H24V0.923077H22.1538ZM20.6154 17.2308H3.38462V19.0769H20.6154V17.2308ZM1.84615 15.6923V0.923077H0V15.6923H1.84615ZM3.38462 17.2308C2.53538 17.2308 1.84615 16.5415 1.84615 15.6923H0C0 16.59 0.356592 17.4509 0.991331 18.0856C1.62607 18.7203 2.48696 19.0769 3.38462 19.0769V17.2308ZM22.1538 15.6923C22.1538 16.5415 21.4646 17.2308 20.6154 17.2308V19.0769C21.513 19.0769 22.3739 18.7203 23.0087 18.0856C23.6434 17.4509 24 16.59 24 15.6923H22.1538Z" fill="#7A8A85"/>
</svg>
